# xmcd
#
# Track frame offsets: 
#        150
#        11203
#        23875
#        36143
#        46186
#        56418
#        68342
#        80447
#        90324
#        101695
#        109869
#        117451
#        128405
#        140461
#        149841
#        161595
#        170359
#        181370
#        192575
#        203800
#
# Disc length: 2848 seconds
#
# Revision: 5
# Processed by: cddbd v1.5.2PL0 Copyright (c) Steve Scherf et al.
# Submitted via: ExactAudioCopy v1.0b3
#
DISCID=120b1e14
DTITLE=Cash, Johnny - Country Greatest
DYEAR=2000
DGENRE=Country
TTITLE0=Cry! Cry! Cry!
TTITLE1=Folsom Prison Blues
TTITLE2=I Walk The Line
TTITLE3=Get Rhythm
TTITLE4=There You Go
TTITLE5=Home Of The Blues
TTITLE6=Give My Love To Rose
TTITLE7=Ballad Of A Teenage Queen
TTITLE8=Big River
TTITLE9=Guess Things Happen That Way
TTITLE10=Come In Stranger
TTITLE11=The Ways Of A Woman In Love
TTITLE12=You're The Nearest Thing To Heaven
TTITLE13=Luther Played The Boogie
TTITLE14=Thanks A Lot
TTITLE15=Katy Too!
TTITLE16=I Love You Because
TTITLE17=Mean-eyed Cat
TTITLE18=Oh, Lonesome Me
TTITLE19=Rock Island Line
EXTD=YEAR: 2000
EXTT0=
EXTT1=
EXTT2=
EXTT3=
EXTT4=
EXTT5=
EXTT6=New unreleased version (Bear Family Box]\n
EXTT7=
EXTT8=
EXTT9=
EXTT10=
EXTT11=Without the Gene Lowry Singers\n
EXTT12=Without the Gene Lowry Singers\n
EXTT13=
EXTT14=
EXTT15=
EXTT16=
EXTT17=
EXTT18=
EXTT19=
PLAYORDER=
